<mxfile host="app.diagrams.net" agent="Mozilla/5.0 (Windows NT 10.0; Win64; x64) AppleWebKit/537.36 (KHTML, like Gecko) Chrome/133.0.0.0 Safari/537.36" version="26.0.16">
  <diagram name="Page-1" id="MgAFY7mzAbF1oiUqc_Fd">
    <mxGraphModel dx="989" dy="538" grid="1" gridSize="10" guides="1" tooltips="1" connect="1" arrows="1" fold="1" page="1" pageScale="1" pageWidth="850" pageHeight="1100" math="0" shadow="0">
      <root>
        <mxCell id="0" />
        <mxCell id="1" parent="0" />
        <mxCell id="tVGwVXVOh4qjOI1oghxZ-1" value="" style="rounded=0;whiteSpace=wrap;html=1;" vertex="1" parent="1">
          <mxGeometry x="80" y="200" width="560" height="40" as="geometry" />
        </mxCell>
        <mxCell id="tVGwVXVOh4qjOI1oghxZ-2" value="" style="endArrow=none;html=1;rounded=0;" edge="1" parent="1">
          <mxGeometry width="50" height="50" relative="1" as="geometry">
            <mxPoint x="160" y="240" as="sourcePoint" />
            <mxPoint x="160" y="200" as="targetPoint" />
          </mxGeometry>
        </mxCell>
        <mxCell id="tVGwVXVOh4qjOI1oghxZ-3" value="" style="endArrow=none;html=1;rounded=0;" edge="1" parent="1">
          <mxGeometry width="50" height="50" relative="1" as="geometry">
            <mxPoint x="240" y="240" as="sourcePoint" />
            <mxPoint x="240" y="200" as="targetPoint" />
          </mxGeometry>
        </mxCell>
        <mxCell id="tVGwVXVOh4qjOI1oghxZ-4" value="" style="endArrow=none;html=1;rounded=0;" edge="1" parent="1">
          <mxGeometry width="50" height="50" relative="1" as="geometry">
            <mxPoint x="319.76" y="240" as="sourcePoint" />
            <mxPoint x="319.76" y="200" as="targetPoint" />
          </mxGeometry>
        </mxCell>
        <mxCell id="tVGwVXVOh4qjOI1oghxZ-5" value="" style="endArrow=none;html=1;rounded=0;" edge="1" parent="1">
          <mxGeometry width="50" height="50" relative="1" as="geometry">
            <mxPoint x="400" y="240" as="sourcePoint" />
            <mxPoint x="400" y="200" as="targetPoint" />
          </mxGeometry>
        </mxCell>
        <mxCell id="tVGwVXVOh4qjOI1oghxZ-6" value="" style="endArrow=none;html=1;rounded=0;" edge="1" parent="1" source="tVGwVXVOh4qjOI1oghxZ-47">
          <mxGeometry width="50" height="50" relative="1" as="geometry">
            <mxPoint x="480" y="240" as="sourcePoint" />
            <mxPoint x="480" y="200" as="targetPoint" />
          </mxGeometry>
        </mxCell>
        <mxCell id="tVGwVXVOh4qjOI1oghxZ-7" value="" style="rounded=0;whiteSpace=wrap;html=1;" vertex="1" parent="1">
          <mxGeometry x="80" y="340" width="400" height="40" as="geometry" />
        </mxCell>
        <mxCell id="tVGwVXVOh4qjOI1oghxZ-8" value="" style="endArrow=none;html=1;rounded=0;" edge="1" parent="1">
          <mxGeometry width="50" height="50" relative="1" as="geometry">
            <mxPoint x="160" y="380" as="sourcePoint" />
            <mxPoint x="160" y="340" as="targetPoint" />
          </mxGeometry>
        </mxCell>
        <mxCell id="tVGwVXVOh4qjOI1oghxZ-9" value="" style="endArrow=none;html=1;rounded=0;" edge="1" parent="1" source="tVGwVXVOh4qjOI1oghxZ-56">
          <mxGeometry width="50" height="50" relative="1" as="geometry">
            <mxPoint x="240" y="380" as="sourcePoint" />
            <mxPoint x="240" y="340" as="targetPoint" />
          </mxGeometry>
        </mxCell>
        <mxCell id="tVGwVXVOh4qjOI1oghxZ-10" value="" style="endArrow=none;html=1;rounded=0;" edge="1" parent="1" source="tVGwVXVOh4qjOI1oghxZ-58">
          <mxGeometry width="50" height="50" relative="1" as="geometry">
            <mxPoint x="319.76" y="380" as="sourcePoint" />
            <mxPoint x="319.76" y="340" as="targetPoint" />
          </mxGeometry>
        </mxCell>
        <mxCell id="tVGwVXVOh4qjOI1oghxZ-11" value="" style="endArrow=none;html=1;rounded=0;" edge="1" parent="1">
          <mxGeometry width="50" height="50" relative="1" as="geometry">
            <mxPoint x="400" y="380" as="sourcePoint" />
            <mxPoint x="400" y="340" as="targetPoint" />
          </mxGeometry>
        </mxCell>
        <mxCell id="tVGwVXVOh4qjOI1oghxZ-12" value="" style="endArrow=none;html=1;rounded=0;" edge="1" parent="1" source="tVGwVXVOh4qjOI1oghxZ-61">
          <mxGeometry width="50" height="50" relative="1" as="geometry">
            <mxPoint x="480" y="380" as="sourcePoint" />
            <mxPoint x="480" y="340" as="targetPoint" />
          </mxGeometry>
        </mxCell>
        <mxCell id="tVGwVXVOh4qjOI1oghxZ-14" value="" style="endArrow=none;html=1;rounded=0;" edge="1" parent="1" source="tVGwVXVOh4qjOI1oghxZ-49">
          <mxGeometry width="50" height="50" relative="1" as="geometry">
            <mxPoint x="560" y="240" as="sourcePoint" />
            <mxPoint x="560" y="200" as="targetPoint" />
          </mxGeometry>
        </mxCell>
        <mxCell id="tVGwVXVOh4qjOI1oghxZ-17" value="" style="rounded=0;whiteSpace=wrap;html=1;" vertex="1" parent="1">
          <mxGeometry x="80" y="480" width="480" height="40" as="geometry" />
        </mxCell>
        <mxCell id="tVGwVXVOh4qjOI1oghxZ-18" value="" style="endArrow=none;html=1;rounded=0;" edge="1" parent="1">
          <mxGeometry width="50" height="50" relative="1" as="geometry">
            <mxPoint x="160" y="520" as="sourcePoint" />
            <mxPoint x="160" y="480" as="targetPoint" />
          </mxGeometry>
        </mxCell>
        <mxCell id="tVGwVXVOh4qjOI1oghxZ-19" value="" style="endArrow=none;html=1;rounded=0;" edge="1" parent="1">
          <mxGeometry width="50" height="50" relative="1" as="geometry">
            <mxPoint x="240" y="520" as="sourcePoint" />
            <mxPoint x="240" y="480" as="targetPoint" />
          </mxGeometry>
        </mxCell>
        <mxCell id="tVGwVXVOh4qjOI1oghxZ-20" value="" style="endArrow=none;html=1;rounded=0;" edge="1" parent="1">
          <mxGeometry width="50" height="50" relative="1" as="geometry">
            <mxPoint x="319.76" y="520" as="sourcePoint" />
            <mxPoint x="319.76" y="480" as="targetPoint" />
          </mxGeometry>
        </mxCell>
        <mxCell id="tVGwVXVOh4qjOI1oghxZ-21" value="" style="endArrow=none;html=1;rounded=0;" edge="1" parent="1">
          <mxGeometry width="50" height="50" relative="1" as="geometry">
            <mxPoint x="400" y="520" as="sourcePoint" />
            <mxPoint x="400" y="480" as="targetPoint" />
          </mxGeometry>
        </mxCell>
        <mxCell id="tVGwVXVOh4qjOI1oghxZ-22" value="" style="endArrow=none;html=1;rounded=0;" edge="1" parent="1">
          <mxGeometry width="50" height="50" relative="1" as="geometry">
            <mxPoint x="480" y="520" as="sourcePoint" />
            <mxPoint x="480" y="480" as="targetPoint" />
          </mxGeometry>
        </mxCell>
        <mxCell id="tVGwVXVOh4qjOI1oghxZ-23" value="" style="endArrow=none;html=1;rounded=0;" edge="1" parent="1">
          <mxGeometry width="50" height="50" relative="1" as="geometry">
            <mxPoint x="560" y="520" as="sourcePoint" />
            <mxPoint x="560" y="480" as="targetPoint" />
          </mxGeometry>
        </mxCell>
        <mxCell id="tVGwVXVOh4qjOI1oghxZ-24" value="" style="rounded=0;whiteSpace=wrap;html=1;" vertex="1" parent="1">
          <mxGeometry x="80" y="620" width="560" height="40" as="geometry" />
        </mxCell>
        <mxCell id="tVGwVXVOh4qjOI1oghxZ-25" value="" style="endArrow=none;html=1;rounded=0;" edge="1" parent="1">
          <mxGeometry width="50" height="50" relative="1" as="geometry">
            <mxPoint x="160" y="660" as="sourcePoint" />
            <mxPoint x="160" y="620" as="targetPoint" />
          </mxGeometry>
        </mxCell>
        <mxCell id="tVGwVXVOh4qjOI1oghxZ-26" value="" style="endArrow=none;html=1;rounded=0;" edge="1" parent="1">
          <mxGeometry width="50" height="50" relative="1" as="geometry">
            <mxPoint x="240" y="660" as="sourcePoint" />
            <mxPoint x="240" y="620" as="targetPoint" />
          </mxGeometry>
        </mxCell>
        <mxCell id="tVGwVXVOh4qjOI1oghxZ-27" value="" style="endArrow=none;html=1;rounded=0;" edge="1" parent="1">
          <mxGeometry width="50" height="50" relative="1" as="geometry">
            <mxPoint x="319.76" y="660" as="sourcePoint" />
            <mxPoint x="319.76" y="620" as="targetPoint" />
          </mxGeometry>
        </mxCell>
        <mxCell id="tVGwVXVOh4qjOI1oghxZ-28" value="" style="endArrow=none;html=1;rounded=0;" edge="1" parent="1">
          <mxGeometry width="50" height="50" relative="1" as="geometry">
            <mxPoint x="400" y="660" as="sourcePoint" />
            <mxPoint x="400" y="620" as="targetPoint" />
          </mxGeometry>
        </mxCell>
        <mxCell id="tVGwVXVOh4qjOI1oghxZ-29" value="" style="endArrow=none;html=1;rounded=0;" edge="1" parent="1">
          <mxGeometry width="50" height="50" relative="1" as="geometry">
            <mxPoint x="480" y="660" as="sourcePoint" />
            <mxPoint x="480" y="620" as="targetPoint" />
          </mxGeometry>
        </mxCell>
        <mxCell id="tVGwVXVOh4qjOI1oghxZ-30" value="" style="endArrow=none;html=1;rounded=0;" edge="1" parent="1">
          <mxGeometry width="50" height="50" relative="1" as="geometry">
            <mxPoint x="560" y="660" as="sourcePoint" />
            <mxPoint x="560" y="620" as="targetPoint" />
          </mxGeometry>
        </mxCell>
        <mxCell id="tVGwVXVOh4qjOI1oghxZ-31" value="PropertyForRent" style="text;whiteSpace=wrap;html=1;" vertex="1" parent="1">
          <mxGeometry x="80" y="160" width="100" height="20" as="geometry" />
        </mxCell>
        <mxCell id="tVGwVXVOh4qjOI1oghxZ-32" value="Owner" style="text;whiteSpace=wrap;html=1;" vertex="1" parent="1">
          <mxGeometry x="80" y="300" width="70" height="20" as="geometry" />
        </mxCell>
        <mxCell id="tVGwVXVOh4qjOI1oghxZ-33" value="Client" style="text;whiteSpace=wrap;html=1;" vertex="1" parent="1">
          <mxGeometry x="80" y="450" width="60" height="20" as="geometry" />
        </mxCell>
        <mxCell id="tVGwVXVOh4qjOI1oghxZ-34" value="Lease" style="text;whiteSpace=wrap;html=1;" vertex="1" parent="1">
          <mxGeometry x="80" y="580" width="70" height="20" as="geometry" />
        </mxCell>
        <mxCell id="tVGwVXVOh4qjOI1oghxZ-35" value="PropertyNo" style="text;whiteSpace=wrap;html=1;" vertex="1" parent="1">
          <mxGeometry x="90" y="205" width="80" height="30" as="geometry" />
        </mxCell>
        <mxCell id="tVGwVXVOh4qjOI1oghxZ-43" value="&lt;span style=&quot;text-align: left;&quot;&gt;City&lt;/span&gt;" style="rounded=0;whiteSpace=wrap;html=1;" vertex="1" parent="1">
          <mxGeometry x="160" y="200" width="80" height="40" as="geometry" />
        </mxCell>
        <mxCell id="tVGwVXVOh4qjOI1oghxZ-44" value="&lt;span style=&quot;text-align: left;&quot;&gt;&lt;u&gt;PropertyNo&lt;/u&gt;&lt;/span&gt;" style="rounded=0;whiteSpace=wrap;html=1;" vertex="1" parent="1">
          <mxGeometry x="80" y="200" width="80" height="40" as="geometry" />
        </mxCell>
        <mxCell id="tVGwVXVOh4qjOI1oghxZ-45" value="&lt;span style=&quot;text-align: left;&quot;&gt;Street&lt;/span&gt;" style="rounded=0;whiteSpace=wrap;html=1;" vertex="1" parent="1">
          <mxGeometry x="240" y="200" width="80" height="40" as="geometry" />
        </mxCell>
        <mxCell id="tVGwVXVOh4qjOI1oghxZ-46" value="&lt;span style=&quot;text-align: left;&quot;&gt;PostCode&lt;/span&gt;" style="rounded=0;whiteSpace=wrap;html=1;" vertex="1" parent="1">
          <mxGeometry x="320" y="200" width="80" height="40" as="geometry" />
        </mxCell>
        <mxCell id="tVGwVXVOh4qjOI1oghxZ-48" value="" style="endArrow=none;html=1;rounded=0;" edge="1" parent="1" target="tVGwVXVOh4qjOI1oghxZ-47">
          <mxGeometry width="50" height="50" relative="1" as="geometry">
            <mxPoint x="480" y="240" as="sourcePoint" />
            <mxPoint x="480" y="200" as="targetPoint" />
          </mxGeometry>
        </mxCell>
        <mxCell id="tVGwVXVOh4qjOI1oghxZ-47" value="&lt;span style=&quot;text-align: left;&quot;&gt;Type&lt;/span&gt;" style="rounded=0;whiteSpace=wrap;html=1;" vertex="1" parent="1">
          <mxGeometry x="400" y="200" width="80" height="40" as="geometry" />
        </mxCell>
        <mxCell id="tVGwVXVOh4qjOI1oghxZ-50" value="" style="endArrow=none;html=1;rounded=0;" edge="1" parent="1" target="tVGwVXVOh4qjOI1oghxZ-49">
          <mxGeometry width="50" height="50" relative="1" as="geometry">
            <mxPoint x="560" y="240" as="sourcePoint" />
            <mxPoint x="560" y="200" as="targetPoint" />
          </mxGeometry>
        </mxCell>
        <mxCell id="tVGwVXVOh4qjOI1oghxZ-49" value="&lt;span style=&quot;text-align: left;&quot;&gt;Rooms&lt;/span&gt;" style="rounded=0;whiteSpace=wrap;html=1;" vertex="1" parent="1">
          <mxGeometry x="480" y="200" width="80" height="40" as="geometry" />
        </mxCell>
        <mxCell id="tVGwVXVOh4qjOI1oghxZ-51" value="&lt;span style=&quot;text-align: left;&quot;&gt;Rent&lt;/span&gt;" style="rounded=0;whiteSpace=wrap;html=1;" vertex="1" parent="1">
          <mxGeometry x="560" y="200" width="80" height="40" as="geometry" />
        </mxCell>
        <mxCell id="tVGwVXVOh4qjOI1oghxZ-55" value="&lt;u&gt;OwnerNo&lt;/u&gt;" style="rounded=0;whiteSpace=wrap;html=1;" vertex="1" parent="1">
          <mxGeometry x="80" y="340" width="80" height="40" as="geometry" />
        </mxCell>
        <mxCell id="tVGwVXVOh4qjOI1oghxZ-57" value="" style="endArrow=none;html=1;rounded=0;" edge="1" parent="1" target="tVGwVXVOh4qjOI1oghxZ-56">
          <mxGeometry width="50" height="50" relative="1" as="geometry">
            <mxPoint x="240" y="380" as="sourcePoint" />
            <mxPoint x="240" y="340" as="targetPoint" />
          </mxGeometry>
        </mxCell>
        <mxCell id="tVGwVXVOh4qjOI1oghxZ-56" value="FName" style="rounded=0;whiteSpace=wrap;html=1;" vertex="1" parent="1">
          <mxGeometry x="160" y="340" width="80" height="40" as="geometry" />
        </mxCell>
        <mxCell id="tVGwVXVOh4qjOI1oghxZ-59" value="" style="endArrow=none;html=1;rounded=0;" edge="1" parent="1" target="tVGwVXVOh4qjOI1oghxZ-58">
          <mxGeometry width="50" height="50" relative="1" as="geometry">
            <mxPoint x="319.76" y="380" as="sourcePoint" />
            <mxPoint x="319.76" y="340" as="targetPoint" />
          </mxGeometry>
        </mxCell>
        <mxCell id="tVGwVXVOh4qjOI1oghxZ-58" value="LName" style="rounded=0;whiteSpace=wrap;html=1;" vertex="1" parent="1">
          <mxGeometry x="240" y="340" width="80" height="40" as="geometry" />
        </mxCell>
        <mxCell id="tVGwVXVOh4qjOI1oghxZ-60" value="Address" style="rounded=0;whiteSpace=wrap;html=1;" vertex="1" parent="1">
          <mxGeometry x="320" y="340" width="80" height="40" as="geometry" />
        </mxCell>
        <mxCell id="tVGwVXVOh4qjOI1oghxZ-62" value="" style="endArrow=none;html=1;rounded=0;" edge="1" parent="1" target="tVGwVXVOh4qjOI1oghxZ-61">
          <mxGeometry width="50" height="50" relative="1" as="geometry">
            <mxPoint x="480" y="380" as="sourcePoint" />
            <mxPoint x="480" y="340" as="targetPoint" />
          </mxGeometry>
        </mxCell>
        <mxCell id="tVGwVXVOh4qjOI1oghxZ-61" value="PhnNo" style="rounded=0;whiteSpace=wrap;html=1;" vertex="1" parent="1">
          <mxGeometry x="400" y="340" width="80" height="40" as="geometry" />
        </mxCell>
        <mxCell id="tVGwVXVOh4qjOI1oghxZ-63" value="&lt;u&gt;ClientNo&lt;/u&gt;" style="rounded=0;whiteSpace=wrap;html=1;" vertex="1" parent="1">
          <mxGeometry x="80" y="480" width="80" height="40" as="geometry" />
        </mxCell>
        <mxCell id="tVGwVXVOh4qjOI1oghxZ-64" value="FName" style="rounded=0;whiteSpace=wrap;html=1;" vertex="1" parent="1">
          <mxGeometry x="160" y="480" width="80" height="40" as="geometry" />
        </mxCell>
        <mxCell id="tVGwVXVOh4qjOI1oghxZ-65" value="LName" style="rounded=0;whiteSpace=wrap;html=1;" vertex="1" parent="1">
          <mxGeometry x="240" y="480" width="80" height="40" as="geometry" />
        </mxCell>
        <mxCell id="tVGwVXVOh4qjOI1oghxZ-66" value="Address" style="rounded=0;whiteSpace=wrap;html=1;" vertex="1" parent="1">
          <mxGeometry x="320" y="480" width="80" height="40" as="geometry" />
        </mxCell>
        <mxCell id="tVGwVXVOh4qjOI1oghxZ-68" value="TelephoneNo" style="rounded=0;whiteSpace=wrap;html=1;" vertex="1" parent="1">
          <mxGeometry x="400" y="480" width="80" height="40" as="geometry" />
        </mxCell>
        <mxCell id="tVGwVXVOh4qjOI1oghxZ-69" value="MaxRent" style="rounded=0;whiteSpace=wrap;html=1;" vertex="1" parent="1">
          <mxGeometry x="480" y="480" width="80" height="40" as="geometry" />
        </mxCell>
        <mxCell id="tVGwVXVOh4qjOI1oghxZ-70" value="&lt;u&gt;LeaseNo&lt;/u&gt;" style="rounded=0;whiteSpace=wrap;html=1;" vertex="1" parent="1">
          <mxGeometry x="80" y="620" width="80" height="40" as="geometry" />
        </mxCell>
        <mxCell id="tVGwVXVOh4qjOI1oghxZ-71" value="&lt;font style=&quot;font-size: 10px;&quot;&gt;PaymentMethod&lt;/font&gt;" style="rounded=0;whiteSpace=wrap;html=1;" vertex="1" parent="1">
          <mxGeometry x="160" y="620" width="80" height="40" as="geometry" />
        </mxCell>
        <mxCell id="tVGwVXVOh4qjOI1oghxZ-72" value="Amount" style="rounded=0;whiteSpace=wrap;html=1;" vertex="1" parent="1">
          <mxGeometry x="240" y="620" width="80" height="40" as="geometry" />
        </mxCell>
        <mxCell id="tVGwVXVOh4qjOI1oghxZ-73" value="Deposit" style="rounded=0;whiteSpace=wrap;html=1;" vertex="1" parent="1">
          <mxGeometry x="320" y="620" width="80" height="40" as="geometry" />
        </mxCell>
        <mxCell id="tVGwVXVOh4qjOI1oghxZ-74" value="Paid" style="rounded=0;whiteSpace=wrap;html=1;" vertex="1" parent="1">
          <mxGeometry x="400" y="620" width="80" height="40" as="geometry" />
        </mxCell>
        <mxCell id="tVGwVXVOh4qjOI1oghxZ-75" value="RentStart" style="rounded=0;whiteSpace=wrap;html=1;" vertex="1" parent="1">
          <mxGeometry x="480" y="620" width="80" height="40" as="geometry" />
        </mxCell>
        <mxCell id="tVGwVXVOh4qjOI1oghxZ-76" value="RentFinish" style="rounded=0;whiteSpace=wrap;html=1;" vertex="1" parent="1">
          <mxGeometry x="560" y="620" width="80" height="40" as="geometry" />
        </mxCell>
        <mxCell id="tVGwVXVOh4qjOI1oghxZ-82" style="edgeStyle=orthogonalEdgeStyle;rounded=0;orthogonalLoop=1;jettySize=auto;html=1;" edge="1" parent="1">
          <mxGeometry relative="1" as="geometry">
            <mxPoint x="120" y="390" as="targetPoint" />
            <mxPoint x="680" y="240" as="sourcePoint" />
            <Array as="points">
              <mxPoint x="680" y="410" />
              <mxPoint x="120" y="410" />
            </Array>
          </mxGeometry>
        </mxCell>
        <mxCell id="tVGwVXVOh4qjOI1oghxZ-77" value="OwnerNo" style="rounded=0;whiteSpace=wrap;html=1;" vertex="1" parent="1">
          <mxGeometry x="640" y="200" width="80" height="40" as="geometry" />
        </mxCell>
        <mxCell id="tVGwVXVOh4qjOI1oghxZ-84" style="edgeStyle=orthogonalEdgeStyle;rounded=0;orthogonalLoop=1;jettySize=auto;html=1;" edge="1" parent="1" source="tVGwVXVOh4qjOI1oghxZ-83">
          <mxGeometry relative="1" as="geometry">
            <mxPoint x="120" y="670" as="targetPoint" />
            <Array as="points">
              <mxPoint x="760" y="690" />
              <mxPoint x="120" y="690" />
            </Array>
          </mxGeometry>
        </mxCell>
        <mxCell id="tVGwVXVOh4qjOI1oghxZ-83" value="LeaseNo" style="rounded=0;whiteSpace=wrap;html=1;" vertex="1" parent="1">
          <mxGeometry x="720" y="200" width="80" height="40" as="geometry" />
        </mxCell>
      </root>
    </mxGraphModel>
  </diagram>
</mxfile>
